# MagicaVoxel @ Ephtracy

# group
o 

# material
mtllib Kentaro-3.mtl
usemtl palette

# normals
vn -1 0 0
vn 1 0 0
vn 0 0 1
vn 0 0 -1
vn 0 -1 0
vn 0 1 0

# texcoords
vt 0.373047 0.5
vt 0.537109 0.5
vt 0.673828 0.5

# verts
v -0.8 1 0.7
v -0.8 1 0.4
v -0.8 1.1 0.7
v -0.8 1.1 0.4
v -0.7 0.9 0.7
v -0.7 0.9 0.4
v -0.7 1 0.7
v -0.7 1 0.4
v -0.6 0.6 0.7
v -0.6 0.6 0.4
v -0.6 0.7 0.7
v -0.6 0.7 0.4
v -0.6 0.9 0.7
v -0.6 0.9 0.4
v -0.4 0.6 0.7
v -0.4 0.6 0.4
v -0.4 0.7 0.7
v -0.4 0.7 0.4
v -0.4 1 0.7
v -0.4 1 0.4
v -0.3 1 0.7
v -0.3 1 0.4
v -0.3 1.1 0.7
v -0.3 1.1 0.4
v -0.8 1 0.7
v -0.8 1.1 0.7
v -0.7 0.9 0.7
v -0.7 1 0.7
v -0.7 1.1 0.7
v -0.6 0.6 0.7
v -0.6 0.7 0.7
v -0.6 0.9 0.7
v -0.4 0.6 0.7
v -0.4 0.7 0.7
v -0.4 1 0.7
v -0.4 1.1 0.7
v -0.3 1 0.7
v -0.3 1.1 0.7
v -0.8 1 0.4
v -0.8 1.1 0.4
v -0.7 0.9 0.4
v -0.7 1 0.4
v -0.7 1.1 0.4
v -0.6 0.6 0.4
v -0.6 0.7 0.4
v -0.6 0.9 0.4
v -0.4 0.6 0.4
v -0.4 0.7 0.4
v -0.4 1 0.4
v -0.4 1.1 0.4
v -0.3 1 0.4
v -0.3 1.1 0.4
v -0.6 0.6 0.7
v -0.4 0.6 0.7
v -0.6 0.6 0.4
v -0.4 0.6 0.4
v -0.7 0.9 0.7
v -0.6 0.9 0.7
v -0.7 0.9 0.4
v -0.6 0.9 0.4
v -0.8 1 0.7
v -0.7 1 0.7
v -0.4 1 0.7
v -0.3 1 0.7
v -0.8 1 0.4
v -0.7 1 0.4
v -0.4 1 0.4
v -0.3 1 0.4
v -0.8 1.1 0.7
v -0.7 1.1 0.7
v -0.4 1.1 0.7
v -0.3 1.1 0.7
v -0.8 1.1 0.4
v -0.7 1.1 0.4
v -0.4 1.1 0.4
v -0.3 1.1 0.4

# faces
f 3/2/1 2/2/1 1/2/1
f 4/2/1 2/2/1 3/2/1
f 7/1/1 6/1/1 5/1/1
f 8/1/1 6/1/1 7/1/1
f 11/3/1 10/3/1 9/3/1
f 12/3/1 10/3/1 11/3/1
f 13/1/1 12/1/1 11/1/1
f 14/1/1 12/1/1 13/1/1
f 15/3/2 16/3/2 17/3/2
f 17/3/2 16/3/2 18/3/2
f 17/1/2 18/1/2 19/1/2
f 19/1/2 18/1/2 20/1/2
f 21/2/2 22/2/2 23/2/2
f 23/2/2 22/2/2 24/2/2
f 28/2/3 26/2/3 25/2/3
f 29/2/3 26/2/3 28/2/3
f 32/1/3 28/1/3 27/1/3
f 32/1/3 29/1/3 28/1/3
f 33/3/3 31/3/3 30/3/3
f 34/1/3 32/1/3 31/1/3
f 34/3/3 31/3/3 33/3/3
f 35/1/3 29/1/3 32/1/3
f 35/1/3 32/1/3 34/1/3
f 36/1/3 29/1/3 35/1/3
f 37/2/3 36/2/3 35/2/3
f 38/2/3 36/2/3 37/2/3
f 39/2/4 40/2/4 42/2/4
f 42/2/4 40/2/4 43/2/4
f 41/1/4 42/1/4 46/1/4
f 42/1/4 43/1/4 46/1/4
f 44/3/4 45/3/4 47/3/4
f 45/1/4 46/1/4 48/1/4
f 47/3/4 45/3/4 48/3/4
f 46/1/4 43/1/4 49/1/4
f 48/1/4 46/1/4 49/1/4
f 49/1/4 43/1/4 50/1/4
f 49/2/4 50/2/4 51/2/4
f 51/2/4 50/2/4 52/2/4
f 55/3/5 54/3/5 53/3/5
f 56/3/5 54/3/5 55/3/5
f 59/1/5 58/1/5 57/1/5
f 60/1/5 58/1/5 59/1/5
f 65/2/5 62/2/5 61/2/5
f 66/2/5 62/2/5 65/2/5
f 67/2/5 64/2/5 63/2/5
f 68/2/5 64/2/5 67/2/5
f 69/2/6 70/2/6 73/2/6
f 70/1/6 71/1/6 74/1/6
f 73/2/6 70/2/6 74/2/6
f 71/2/6 72/2/6 75/2/6
f 74/1/6 71/1/6 75/1/6
f 75/2/6 72/2/6 76/2/6
