# MagicaVoxel @ Ephtracy

# group
o 

# material
mtllib Kentaro-4.mtl
usemtl palette

# normals
vn -1 0 0
vn 1 0 0
vn 0 0 1
vn 0 0 -1
vn 0 -1 0
vn 0 1 0

# texcoords
vt 0.337891 0.5
vt 0.373047 0.5
vt 0.537109 0.5
vt 0.986328 0.5

# verts
v -0.3 1.2 0.4
v -0.3 1.2 -0.1
v -0.3 1.6 0.5
v -0.3 1.6 0.4
v -0.3 1.6 0.3
v -0.3 1.6 0
v -0.3 1.6 -0.1
v -0.3 1.6 -0.2
v -0.3 1.7 0.4
v -0.3 1.7 0.3
v -0.3 1.7 0
v -0.3 1.7 -0.1
v -0.3 1.9 0.5
v -0.3 1.9 0.4
v -0.3 1.9 -0.1
v -0.3 1.9 -0.2
v -0.2 1.6 0.5
v -0.2 1.6 0.4
v -0.2 1.6 -0.1
v -0.2 1.6 -0.2
v -0.2 1.7 0.4
v -0.2 1.7 -0.1
v -0.2 1.9 0.5
v -0.2 1.9 0.4
v -0.2 1.9 -0.1
v -0.2 1.9 -0.2
v -0.1 1.2 0.4
v -0.1 1.2 0.3
v -0.1 1.2 0
v -0.1 1.2 -0.1
v -0.1 1.4 0.3
v -0.1 1.4 0
v -0.1 1.5 0.4
v -0.1 1.5 0.3
v -0.1 1.5 0
v -0.1 1.5 -0.1
v -0.1 1.6 0.4
v -0.1 1.6 0.3
v -0.1 1.6 0
v -0.1 1.6 -0.1
v -0.1 1.7 0.4
v -0.1 1.7 0.3
v -0.1 1.7 0
v -0.1 1.7 -0.1
v 0 1.5 0.4
v 0 1.5 0.3
v 0 1.5 0
v 0 1.5 -0.1
v 0 1.6 0.4
v 0 1.6 0.3
v 0 1.6 0
v 0 1.6 -0.1
v 0.1 1.2 0.3
v 0.1 1.2 0
v 0.1 1.3 0.3
v 0.1 1.3 0
v 0.1 1.5 0.3
v 0.1 1.5 0.2
v 0.1 1.5 0.1
v 0.1 1.5 0
v 0.1 1.6 0.3
v 0.1 1.6 0.2
v 0.1 1.6 0.1
v 0.1 1.6 0
v 0.2 1.3 0.3
v 0.2 1.3 0
v 0.2 1.4 0.3
v 0.2 1.4 0
v 0.2 1.5 0.3
v 0.2 1.5 0
v -0.3 1.6 0.5
v -0.3 1.9 0.5
v -0.2 1.6 0.5
v -0.2 1.9 0.5
v -0.3 1.2 0.4
v -0.3 1.6 0.4
v -0.2 1.6 0.4
v -0.2 1.7 0.4
v -0.1 1.2 0.4
v -0.1 1.5 0.4
v -0.1 1.6 0.4
v -0.1 1.7 0.4
v 0 1.5 0.4
v 0 1.6 0.4
v -0.1 1.2 0.3
v -0.1 1.4 0.3
v -0.1 1.5 0.3
v 0 1.4 0.3
v 0 1.5 0.3
v 0 1.6 0.3
v 0.1 1.2 0.3
v 0.1 1.3 0.3
v 0.1 1.4 0.3
v 0.1 1.5 0.3
v 0.1 1.6 0.3
v 0.2 1.3 0.3
v 0.2 1.4 0.3
v 0.2 1.5 0.3
v -0.3 1.7 -0.1
v -0.3 1.9 -0.1
v -0.2 1.7 -0.1
v -0.2 1.9 -0.1
v -0.3 1.7 0.4
v -0.3 1.9 0.4
v -0.2 1.7 0.4
v -0.2 1.9 0.4
v -0.1 1.2 0
v -0.1 1.4 0
v -0.1 1.5 0
v 0 1.4 0
v 0 1.5 0
v 0 1.6 0
v 0.1 1.2 0
v 0.1 1.3 0
v 0.1 1.4 0
v 0.1 1.5 0
v 0.1 1.6 0
v 0.2 1.3 0
v 0.2 1.4 0
v 0.2 1.5 0
v -0.3 1.2 -0.1
v -0.3 1.6 -0.1
v -0.2 1.6 -0.1
v -0.2 1.7 -0.1
v -0.1 1.2 -0.1
v -0.1 1.5 -0.1
v -0.1 1.6 -0.1
v -0.1 1.7 -0.1
v 0 1.5 -0.1
v 0 1.6 -0.1
v -0.3 1.6 -0.2
v -0.3 1.9 -0.2
v -0.2 1.6 -0.2
v -0.2 1.9 -0.2
v -0.3 1.2 0.4
v -0.1 1.2 0.4
v -0.1 1.2 0.3
v 0.1 1.2 0.3
v -0.1 1.2 0
v 0.1 1.2 0
v -0.3 1.2 -0.1
v -0.1 1.2 -0.1
v 0.1 1.3 0.3
v 0.2 1.3 0.3
v 0.1 1.3 0
v 0.2 1.3 0
v -0.1 1.5 0.4
v 0 1.5 0.4
v -0.1 1.5 0.3
v 0 1.5 0.3
v -0.1 1.5 0
v 0 1.5 0
v -0.1 1.5 -0.1
v 0 1.5 -0.1
v -0.3 1.6 0.5
v -0.2 1.6 0.5
v -0.3 1.6 0.4
v -0.2 1.6 0.4
v -0.3 1.6 -0.1
v -0.2 1.6 -0.1
v -0.3 1.6 -0.2
v -0.2 1.6 -0.2
v 0.1 1.5 0.3
v 0.2 1.5 0.3
v 0.1 1.5 0.2
v 0.1 1.5 0.1
v 0.1 1.5 0
v 0.2 1.5 0
v -0.1 1.6 0.4
v 0 1.6 0.4
v -0.1 1.6 0.3
v 0 1.6 0.3
v 0.1 1.6 0.3
v 0 1.6 0.2
v 0.1 1.6 0.2
v 0 1.6 0.1
v 0.1 1.6 0.1
v -0.1 1.6 0
v 0 1.6 0
v 0.1 1.6 0
v -0.1 1.6 -0.1
v 0 1.6 -0.1
v -0.3 1.7 0.4
v -0.2 1.7 0.4
v -0.1 1.7 0.4
v -0.3 1.7 0.3
v -0.1 1.7 0.3
v -0.3 1.7 0
v -0.1 1.7 0
v -0.3 1.7 -0.1
v -0.2 1.7 -0.1
v -0.1 1.7 -0.1
v -0.3 1.9 0.5
v -0.2 1.9 0.5
v -0.3 1.9 0.4
v -0.2 1.9 0.4
v -0.3 1.9 -0.1
v -0.2 1.9 -0.1
v -0.3 1.9 -0.2
v -0.2 1.9 -0.2

# faces
f 4/2/1 2/2/1 1/2/1
f 5/2/1 2/2/1 4/2/1
f 6/2/1 2/2/1 5/2/1
f 7/2/1 2/2/1 6/2/1
f 9/1/1 4/1/1 3/1/1
f 9/1/1 5/1/1 4/1/1
f 10/2/1 6/2/1 5/2/1
f 10/1/1 5/1/1 9/1/1
f 11/1/1 8/1/1 7/1/1
f 11/2/1 6/2/1 10/2/1
f 11/1/1 7/1/1 6/1/1
f 12/1/1 8/1/1 11/1/1
f 13/1/1 9/1/1 3/1/1
f 14/1/1 9/1/1 13/1/1
f 15/1/1 8/1/1 12/1/1
f 16/1/1 8/1/1 15/1/1
f 17/1/2 18/1/2 21/1/2
f 19/1/2 20/1/2 22/1/2
f 17/1/2 21/1/2 23/1/2
f 23/1/2 21/1/2 24/1/2
f 22/1/2 20/1/2 25/1/2
f 25/1/2 20/1/2 26/1/2
f 27/2/2 28/2/2 31/2/2
f 29/2/2 30/2/2 32/2/2
f 27/2/2 31/2/2 33/2/2
f 33/2/2 31/2/2 34/2/2
f 32/2/2 30/2/2 35/2/2
f 35/2/2 30/2/2 36/2/2
f 37/1/2 38/1/2 41/1/2
f 38/2/2 39/2/2 42/2/2
f 41/1/2 38/1/2 42/1/2
f 39/1/2 40/1/2 43/1/2
f 42/2/2 39/2/2 43/2/2
f 43/1/2 40/1/2 44/1/2
f 45/2/2 46/2/2 49/2/2
f 49/2/2 46/2/2 50/2/2
f 47/2/2 48/2/2 51/2/2
f 51/2/2 48/2/2 52/2/2
f 53/2/2 54/2/2 55/2/2
f 55/2/2 54/2/2 56/2/2
f 57/2/2 58/2/2 61/2/2
f 58/1/2 59/1/2 62/1/2
f 61/2/2 58/2/2 62/2/2
f 59/2/2 60/2/2 63/2/2
f 62/1/2 59/1/2 63/1/2
f 63/2/2 60/2/2 64/2/2
f 65/3/2 66/3/2 67/3/2
f 67/3/2 66/3/2 68/3/2
f 67/2/2 68/2/2 69/2/2
f 69/2/2 68/2/2 70/2/2
f 73/1/3 72/1/3 71/1/3
f 74/1/3 72/1/3 73/1/3
f 77/2/3 76/2/3 75/2/3
f 79/2/3 77/2/3 75/2/3
f 80/2/3 77/2/3 79/2/3
f 81/1/3 78/1/3 77/1/3
f 81/2/3 77/2/3 80/2/3
f 82/1/3 78/1/3 81/1/3
f 83/2/3 81/2/3 80/2/3
f 84/2/3 81/2/3 83/2/3
f 88/2/3 86/2/3 85/2/3
f 88/4/3 87/4/3 86/4/3
f 89/4/3 87/4/3 88/4/3
f 91/2/3 88/2/3 85/2/3
f 91/2/3 90/2/3 89/2/3
f 91/2/3 89/2/3 88/2/3
f 92/2/3 90/2/3 91/2/3
f 93/2/3 90/2/3 92/2/3
f 94/2/3 90/2/3 93/2/3
f 95/2/3 90/2/3 94/2/3
f 96/3/3 93/3/3 92/3/3
f 97/2/3 94/2/3 93/2/3
f 97/3/3 93/3/3 96/3/3
f 98/2/3 94/2/3 97/2/3
f 101/1/3 100/1/3 99/1/3
f 102/1/3 100/1/3 101/1/3
f 103/1/4 104/1/4 105/1/4
f 105/1/4 104/1/4 106/1/4
f 107/2/4 108/2/4 110/2/4
f 108/4/4 109/4/4 110/4/4
f 110/4/4 109/4/4 111/4/4
f 107/2/4 110/2/4 113/2/4
f 111/2/4 112/2/4 113/2/4
f 110/2/4 111/2/4 113/2/4
f 113/2/4 112/2/4 114/2/4
f 114/2/4 112/2/4 115/2/4
f 115/2/4 112/2/4 116/2/4
f 116/2/4 112/2/4 117/2/4
f 114/3/4 115/3/4 118/3/4
f 115/2/4 116/2/4 119/2/4
f 118/3/4 115/3/4 119/3/4
f 119/2/4 116/2/4 120/2/4
f 121/2/4 122/2/4 123/2/4
f 121/2/4 123/2/4 125/2/4
f 125/2/4 123/2/4 126/2/4
f 123/1/4 124/1/4 127/1/4
f 126/2/4 123/2/4 127/2/4
f 127/1/4 124/1/4 128/1/4
f 126/2/4 127/2/4 129/2/4
f 129/2/4 127/2/4 130/2/4
f 131/1/4 132/1/4 133/1/4
f 133/1/4 132/1/4 134/1/4
f 137/2/5 136/2/5 135/2/5
f 139/2/5 137/2/5 135/2/5
f 139/2/5 138/2/5 137/2/5
f 140/2/5 138/2/5 139/2/5
f 141/2/5 139/2/5 135/2/5
f 142/2/5 139/2/5 141/2/5
f 145/3/5 144/3/5 143/3/5
f 146/3/5 144/3/5 145/3/5
f 149/2/5 148/2/5 147/2/5
f 150/2/5 148/2/5 149/2/5
f 153/2/5 152/2/5 151/2/5
f 154/2/5 152/2/5 153/2/5
f 157/1/5 156/1/5 155/1/5
f 158/1/5 156/1/5 157/1/5
f 161/1/5 160/1/5 159/1/5
f 162/1/5 160/1/5 161/1/5
f 163/2/6 164/2/6 165/2/6
f 165/2/6 164/2/6 166/2/6
f 166/2/6 164/2/6 167/2/6
f 167/2/6 164/2/6 168/2/6
f 169/2/6 170/2/6 171/2/6
f 171/2/6 170/2/6 172/2/6
f 171/2/6 172/2/6 174/2/6
f 172/2/6 173/2/6 174/2/6
f 174/2/6 173/2/6 175/2/6
f 171/2/6 174/2/6 176/2/6
f 174/1/6 175/1/6 176/1/6
f 176/1/6 175/1/6 177/1/6
f 171/2/6 176/2/6 178/2/6
f 176/2/6 177/2/6 178/2/6
f 178/2/6 177/2/6 179/2/6
f 179/2/6 177/2/6 180/2/6
f 178/2/6 179/2/6 181/2/6
f 181/2/6 179/2/6 182/2/6
f 183/1/6 184/1/6 186/1/6
f 184/1/6 185/1/6 186/1/6
f 186/1/6 185/1/6 187/1/6
f 186/2/6 187/2/6 188/2/6
f 188/2/6 187/2/6 189/2/6
f 188/1/6 189/1/6 190/1/6
f 190/1/6 189/1/6 191/1/6
f 191/1/6 189/1/6 192/1/6
f 193/1/6 194/1/6 195/1/6
f 195/1/6 194/1/6 196/1/6
f 197/1/6 198/1/6 199/1/6
f 199/1/6 198/1/6 200/1/6
